<svg id="Ebene_1" data-name="Ebene 1" xmlns="http://www.w3.org/2000/svg" viewBox="0 0 24 24"><defs><style>.cls-1{fill:none;stroke:#212121;stroke-linecap:round;stroke-linejoin:round;}</style></defs><title>CC</title><path d="M19.47,14.74a.78.78,0,0,0-.68-.54l-1.23-.09L17.11,13a.77.77,0,0,0-.72-.48h0a.77.77,0,0,0-.72.49l-.45,1.12L14,14.2a.79.79,0,0,0-.69.54.77.77,0,0,0,.25.83l.93.77-.3,1.19a.77.77,0,0,0,.3.82.79.79,0,0,0,.46.15.75.75,0,0,0,.41-.12l1-.66,1,.66a.78.78,0,0,0,1.17-.85l-.3-1.19.93-.77A.77.77,0,0,0,19.47,14.74ZM18.19,16h-3.5V15h3.5Z"/><line class="cls-1" x1="5.43" y1="7.41" x2="14.43" y2="7.41"/><line class="cls-1" x1="5.43" y1="10.41" x2="16.43" y2="10.41"/><line class="cls-1" x1="5.43" y1="13.41" x2="12.43" y2="13.41"/><line class="cls-1" x1="5.43" y1="16.41" x2="11.43" y2="16.41"/></svg>