<svg id="Ebene_1" data-name="Ebene 1" xmlns="http://www.w3.org/2000/svg" viewBox="0 0 24 24"><defs><style>.cls-1{stroke:#000;stroke-miterlimit:10;}.cls-2{fill:none;stroke:#212121;stroke-linecap:round;stroke-linejoin:round;}</style></defs><title>CC</title><g id="_7" data-name="7"><g id="_7-2" data-name="7"><path class="cls-1" d="M17.23,13.33l.57,1.41,1.53.11a.28.28,0,0,1,.16.49l-1.18,1,.38,1.5a.28.28,0,0,1-.42.3L17,17.28l-1.29.83a.28.28,0,0,1-.42-.3l.38-1.5-1.18-1a.28.28,0,0,1,.16-.49l1.53-.11.57-1.41A.27.27,0,0,1,17.23,13.33Z"/></g></g><line class="cls-2" x1="6.43" y1="7.41" x2="15.43" y2="7.41"/><line class="cls-2" x1="6.43" y1="10.41" x2="17.43" y2="10.41"/><line class="cls-2" x1="6.43" y1="13.41" x2="13.43" y2="13.41"/><line class="cls-2" x1="6.43" y1="16.41" x2="12.43" y2="16.41"/></svg>