<?xml version="1.0" encoding="utf-8"?>
<!-- Generator: Adobe Illustrator 24.0.1, SVG Export Plug-In . SVG Version: 6.00 Build 0)  -->
<svg version="1.1" id="Ebene_1" xmlns="http://www.w3.org/2000/svg" xmlns:xlink="http://www.w3.org/1999/xlink" x="0px" y="0px"
	 viewBox="0 0 24 24" style="enable-background:new 0 0 24 24;" xml:space="preserve">
<style type="text/css">
	.st0{fill:none;stroke:#1D1D1B;stroke-miterlimit:10;}
</style>
<title>cc</title>
<g>
	<line class="st0" x1="8.5" y1="6.3" x2="8.5" y2="4.4"/>
	<line class="st0" x1="12.4" y1="7.8" x2="12.4" y2="4.6"/>
	<line class="st0" x1="7.9" y1="12.3" x2="4.7" y2="12.3"/>
	<line class="st0" x1="19.5" y1="12.1" x2="16.1" y2="12.1"/>
	<line class="st0" x1="12.1" y1="19.6" x2="12.1" y2="16.2"/>
	<line class="st0" x1="16.6" y1="7.5" x2="14.6" y2="9.5"/>
	<line class="st0" x1="9.4" y1="14.6" x2="7.5" y2="16.6"/>
	<line class="st0" x1="6.3" y1="8.5" x2="4.5" y2="8.5"/>
	<path class="st0" d="M8.1,8c0.5-0.5,1.2-0.7,2-0.7C10,7.1,9.9,6.9,9.7,6.8c-0.9-0.9-2.2-1-3-0.2C5.9,7.4,6,8.8,6.8,9.7
		C7,9.8,7.2,9.9,7.4,10C7.3,9.2,7.6,8.5,8.1,8z"/>
	<ellipse transform="matrix(0.7071 -0.7071 0.7071 0.7071 -4.8695 11.852)" class="st0" cx="11.9" cy="11.8" rx="3.7" ry="5.2"/>
	<line class="st0" x1="8.2" y1="8.2" x2="15.6" y2="15.5"/>
</g>
</svg>
